<?xml version="1.0" encoding="UTF-8"?>
<svg version="1.1" xmlns="http://www.w3.org/2000/svg" width="1000" height="250">
<path d="M0 0 C330 0 660 0 1000 0 C1000 82.5 1000 165 1000 250 C670 250 340 250 0 250 C0 167.5 0 85 0 0 Z " fill="#010101" transform="translate(0,0)"/>
<path d="M0 0 C1.22160828 -0.00761353 2.44321655 -0.01522705 3.70184326 -0.02307129 C6.27695685 -0.03383568 8.85211396 -0.03674038 11.42724609 -0.03222656 C15.33376231 -0.03125636 19.238299 -0.07288241 23.14453125 -0.1171875 C25.65885012 -0.12239703 28.17317574 -0.12508265 30.6875 -0.125 C32.41471283 -0.1495929 32.41471283 -0.1495929 34.17681885 -0.17468262 C46.36664981 -0.072598 56.32357888 3.65966579 65.0234375 12.21875 C73.24012224 21.08169085 76.44696521 30.00584094 76.546875 42.09375 C76.5569458 42.88104492 76.5670166 43.66833984 76.57739258 44.47949219 C76.41079139 55.80837321 71.80037859 65.14077006 64.2421875 73.41015625 C61.18189115 76.36395877 57.55820115 79.46875 53.109375 79.46875 C55.99429687 84.73061746 59.92775586 88.70878356 64.02734375 93.04296875 C66.109375 95.46875 66.109375 95.46875 66.109375 97.46875 C61.94420953 97.76124758 57.7816944 97.9373997 53.609375 98.09375 C52.43632812 98.17753906 51.26328125 98.26132813 50.0546875 98.34765625 C41.41371203 98.59038028 41.41371203 98.59038028 37.55078125 95.26855469 C35.54690555 92.7510273 33.80911587 90.1972517 32.109375 87.46875 C28.99851872 84.35789372 25.21911143 85.17031044 21.04296875 85.16015625 C19.17642947 85.13497373 17.30989309 85.10957607 15.44335938 85.08398438 C12.50318304 85.05536773 9.56305764 85.03135404 6.62280273 85.01245117 C3.78340849 84.99062628 0.94464191 84.95115012 -1.89453125 84.91015625 C-3.19349083 84.90998253 -3.19349083 84.90998253 -4.51869202 84.9098053 C-15.41726646 84.73544127 -24.07996129 80.8396878 -32.05859375 73.46484375 C-42.27563561 62.7494096 -44.37580232 51.45766078 -44.17578125 37.265625 C-43.85232081 28.93692492 -40.94902644 22.06000036 -35.890625 15.46875 C-34.8078125 13.98375 -34.8078125 13.98375 -33.703125 12.46875 C-24.77654776 2.06805908 -13.02522389 0.00226246 0 0 Z " fill="#F9F9F8" transform="translate(251.890625,84.53125)"/>
<path d="M0 0 C0.70342529 -0.00029205 1.40685059 -0.00058411 2.1315918 -0.00088501 C4.42574993 0.00049347 6.71957143 0.01598351 9.01367188 0.03173828 C10.61649396 0.0354737 12.21931835 0.03831817 13.82214355 0.04031372 C18.01756216 0.04790854 22.21283978 0.06752082 26.40820312 0.08972168 C31.45437711 0.1138901 36.50059853 0.12298088 41.54681396 0.1346283 C49.19211431 0.15394807 56.83710602 0.19229935 64.48242188 0.22705078 C64.48242188 22.99705078 64.48242188 45.76705078 64.48242188 69.22705078 C46.41563154 69.38748602 46.41563154 69.38748602 38.66601562 69.42236328 C33.39485401 69.44619934 28.12397249 69.47428158 22.85302734 69.52880859 C18.59954144 69.57253072 14.34635624 69.59624306 10.09266281 69.60655975 C8.47646736 69.61390414 6.86028684 69.62824516 5.24422073 69.64997101 C-5.07746952 69.7831108 -13.20607609 68.95657471 -22.26757812 63.60205078 C-30.33706403 55.08426011 -32.87714318 45.89891332 -32.89257812 34.47705078 C-32.91707031 33.53861328 -32.9415625 32.60017578 -32.96679688 31.63330078 C-32.99972745 23.68605466 -31.37617135 16.72088694 -26.26757812 10.47705078 C-25.36007812 9.73455078 -24.45257813 8.99205078 -23.51757812 8.22705078 C-22.91816406 7.71271484 -22.31875 7.19837891 -21.70117188 6.66845703 C-15.02703985 1.22205183 -8.52409224 -0.03001441 0 0 Z " fill="#FAFAFA" transform="translate(477.517578125,99.77294921875)"/>
<path d="M0 0 C6.27 0 12.54 0 19 0 C19.03738281 3.11824219 19.07476562 6.23648438 19.11328125 9.44921875 C19.1595124 12.47427322 19.21074035 15.49920474 19.26245117 18.52416992 C19.29567422 20.62402861 19.3237143 22.72397603 19.34643555 24.82397461 C19.38002936 27.84527344 19.43234834 30.86576101 19.48828125 33.88671875 C19.49467117 34.82335861 19.5010611 35.75999847 19.50764465 36.72502136 C19.61631307 41.55909334 19.7023071 45.17463875 23 49 C25.82656207 50.69747628 27.93412101 51.25364254 31.21435547 51.2746582 C32.44616043 51.28895622 32.44616043 51.28895622 33.70285034 51.30354309 C34.5820816 51.30263168 35.46131287 51.30172028 36.3671875 51.30078125 C37.73570358 51.30720894 37.73570358 51.30720894 39.13186646 51.31376648 C41.06007051 51.31950377 42.9882962 51.32001447 44.91650391 51.31567383 C47.85747492 51.3125188 50.79743491 51.33596326 53.73828125 51.36132812 C55.61458207 51.36360176 57.49088558 51.36430432 59.3671875 51.36328125 C60.2423703 51.372491 61.1175531 51.38170074 62.01925659 51.39118958 C67.0788784 51.35310494 70.64791696 50.87176836 75 48 C77.08382862 44.87425707 77.25889959 44.09547445 77.31884766 40.52856445 C77.33871735 39.62785721 77.35858704 38.72714996 77.37905884 37.79914856 C77.39061005 36.83031235 77.40216125 35.86147614 77.4140625 34.86328125 C77.43342865 33.86870407 77.4527948 32.87412689 77.4727478 31.84941101 C77.53256159 28.6705281 77.57893639 25.49160902 77.625 22.3125 C77.6631781 20.15818727 77.70222973 18.00388983 77.7421875 15.84960938 C77.83826472 10.56653034 77.9222893 5.28337983 78 0 C84.27 0 90.54 0 97 0 C97.09238404 6.18973089 97.17185437 12.37702067 97.21972656 18.56689453 C97.23970531 20.66756343 97.26689789 22.7681777 97.30175781 24.86865234 C97.70053894 49.53443815 97.70053894 49.53443815 90.875 60.375 C84.92159097 65.81072129 78.26830783 70.0732787 70.07641602 70.19287109 C68.5732357 70.21696548 68.5732357 70.21696548 67.03968811 70.24154663 C62.4318216 70.28626928 57.82409795 70.32711185 53.21606445 70.35009766 C50.7963698 70.36659006 48.3767225 70.39379 45.95727539 70.43212891 C42.45173089 70.48734946 38.94732922 70.50884713 35.44140625 70.5234375 C33.84227135 70.55744156 33.84227135 70.55744156 32.21083069 70.59213257 C23.70436563 70.56860614 15.59622438 68.7179552 8.84547424 63.25717163 C1.34818158 55.35688671 -0.6145635 46.33382293 -0.390625 35.7421875 C-0.38496521 34.71312286 -0.37930542 33.68405823 -0.37347412 32.62380981 C-0.35128703 29.37371026 -0.30112415 26.12475989 -0.25 22.875 C-0.22991216 20.65626605 -0.21166542 18.43751462 -0.1953125 16.21875 C-0.15148023 10.8120649 -0.0825766 5.40622651 0 0 Z " fill="#F8F8F8" transform="translate(339,100)"/>
<path d="M0 0 C1.01172775 -0.01921509 2.02345551 -0.03843018 3.06584167 -0.05822754 C4.15439957 -0.06672729 5.24295746 -0.07522705 6.36450195 -0.08398438 C7.49169144 -0.09538452 8.61888092 -0.10678467 9.78022766 -0.11853027 C12.16659803 -0.13741972 14.55302045 -0.15049408 16.93945312 -0.15820312 C20.57230983 -0.1775719 24.20288162 -0.23960213 27.83520508 -0.30273438 C30.15745731 -0.31579982 32.47972568 -0.32629865 34.80200195 -0.33398438 C35.88043869 -0.35867798 36.95887543 -0.38337158 38.06999207 -0.40881348 C45.59071613 -0.36488027 50.21325642 1.3926738 55.9152832 6.32226562 C61.57988043 12.27735502 62.39809151 18.21484165 62.42163086 26.14941406 C62.23479877 32.69302117 60.3165367 37.38965351 55.9152832 42.32226562 C51.72387794 45.74382094 47.41056123 48.32226562 41.9152832 48.32226562 C39.72387695 45.98632812 39.72387695 45.98632812 37.3527832 42.94726562 C34.28337115 39.00196484 34.28337115 39.00196484 30.9152832 35.32226562 C28.39150665 35.04418345 28.39150665 35.04418345 25.4699707 35.12695312 C23.85541992 35.13662109 23.85541992 35.13662109 22.20825195 35.14648438 C21.08032227 35.16324219 19.95239258 35.18 18.7902832 35.19726562 C17.08678711 35.21080078 17.08678711 35.21080078 15.34887695 35.22460938 C12.53747022 35.24823464 9.72648022 35.2811755 6.9152832 35.32226562 C7.5649707 36.0209375 8.2146582 36.71960938 8.8840332 37.43945312 C9.7193457 38.34953125 10.5546582 39.25960937 11.4152832 40.19726562 C12.2505957 41.1021875 13.0859082 42.00710937 13.9465332 42.93945312 C15.9152832 45.32226562 15.9152832 45.32226562 15.9152832 47.32226562 C16.5752832 47.32226562 17.2352832 47.32226562 17.9152832 47.32226562 C17.9152832 47.98226562 17.9152832 48.64226562 17.9152832 49.32226562 C14.58225317 49.43975313 11.24976483 49.50993887 7.9152832 49.57226562 C6.98071289 49.60578125 6.04614258 49.63929688 5.08325195 49.67382812 C-2.40756802 49.77859484 -7.57063128 48.33878151 -13.29174805 43.42773438 C-19.41450883 36.11319533 -21.74943106 30.18492321 -21.49487305 20.54492188 C-20.54460416 13.07852345 -16.54332925 8.1443741 -10.83081055 3.51367188 C-7.17005098 1.01583816 -4.4592764 0.06859608 0 0 Z " fill="#040404" transform="translate(247.084716796875,102.677734375)"/>
<path d="M0 0 C8.91 0 17.82 0 27 0 C25.35249862 3.29500276 24.25744067 5.02260166 21.82814026 7.59405518 C21.17444962 8.28951447 20.52075897 8.98497375 19.84725952 9.70150757 C18.77153183 10.83007675 18.77153183 10.83007675 17.67407227 11.98144531 C16.91735733 12.7818222 16.1606424 13.5821991 15.3809967 14.40682983 C8.36986034 21.79884843 1.27868439 29.11431607 -5.83975124 36.40294266 C-10.61342638 41.29329955 -15.35857552 46.20554343 -20.03881836 51.18554688 C-24.57518217 56.01244385 -29.18219669 60.76383409 -33.83726692 65.47682953 C-35.58923886 67.27325836 -37.31782933 69.09283586 -39.02035332 70.93619537 C-53.02580083 86.04440976 -53.02580083 86.04440976 -64.28713989 87.09216309 C-70.91126951 87.28358862 -77.43277514 86.86140528 -84 86 C-79.65021483 80.7965618 -75.07822868 75.9448988 -70.26635742 71.16870117 C-69.51606262 70.41986664 -68.76576782 69.6710321 -67.99273682 68.89950562 C-66.37497417 67.28552837 -64.75605797 65.6727067 -63.13609886 64.06093407 C-60.57477944 61.51243303 -58.01664522 58.96077287 -55.45930481 56.40827942 C-50.03817197 50.99853906 -44.61311163 45.59274792 -39.1875 40.1875 C-32.88228658 33.90586836 -26.57868318 27.6226387 -20.27926064 21.33519936 C-17.75462209 18.81705992 -15.22700021 16.30194095 -12.69926453 13.78691101 C-11.16158632 12.25286307 -9.62404706 10.71867583 -8.08666992 9.18432617 C-7.02619194 8.13159767 -7.02619194 8.13159767 -5.94429016 7.05760193 C-5.30369659 6.41707886 -4.66310303 5.77655579 -4.00309753 5.11662292 C-3.16443287 4.28128918 -3.16443287 4.28128918 -2.30882549 3.42908001 C-0.89273343 2.01404617 -0.89273343 2.01404617 0 0 Z " fill="#F5F5F5" transform="translate(750,84)"/>
<path d="M0 0 C1.08081848 0.00007553 2.16163696 0.00015106 3.27520752 0.00022888 C4.43574646 0.00539017 5.5962854 0.01055145 6.79199219 0.01586914 C7.98491882 0.01728409 9.17784546 0.01869904 10.40692139 0.02015686 C14.21759548 0.02575501 18.02821085 0.03830721 21.83886719 0.05102539 C24.42219967 0.05604063 27.00553308 0.06060349 29.58886719 0.06469727 C35.92222315 0.07572385 42.25553521 0.09298725 48.58886719 0.11352539 C48.58886719 6.05352539 48.58886719 11.99352539 48.58886719 18.11352539 C47.06487305 18.13858154 45.54087891 18.1636377 43.97070312 18.18945312 C38.32006322 18.28357777 32.66954478 18.38378633 27.01904297 18.48583984 C24.5727828 18.52916952 22.12649276 18.57084601 19.68017578 18.61083984 C16.16527301 18.66858977 12.65052027 18.73227101 9.13574219 18.79711914 C7.49336578 18.82218788 7.49336578 18.82218788 5.81781006 18.84776306 C4.79705383 18.86770828 3.77629761 18.8876535 2.72460938 18.90820312 C1.37891876 18.93151955 1.37891876 18.93151955 0.00604248 18.95530701 C-3.28609263 19.16518188 -3.28609263 19.16518188 -6.41113281 20.11352539 C-8.38332381 22.95171506 -8.67390498 25.38837052 -8.72998047 28.7902832 C-8.74985016 29.71093567 -8.76971985 30.63158813 -8.79019165 31.58013916 C-8.80751846 33.05846222 -8.80751846 33.05846222 -8.82519531 34.56665039 C-8.84456146 35.58200867 -8.86392761 36.59736694 -8.88388062 37.64349365 C-8.9436138 40.88341904 -8.99003709 44.12338007 -9.03613281 47.36352539 C-9.07431832 49.56145747 -9.11337039 51.75937467 -9.15332031 53.95727539 C-9.24931036 59.34257113 -9.33336486 64.72793693 -9.41113281 70.11352539 C-15.68113281 70.11352539 -21.95113281 70.11352539 -28.41113281 70.11352539 C-28.51045628 63.44242634 -28.58281685 56.77176349 -28.63085938 50.10009766 C-28.65089988 47.83341976 -28.67813992 45.56679307 -28.71289062 43.30029297 C-28.76174149 40.03087683 -28.78417794 36.76214782 -28.80175781 33.49243164 C-28.82240295 32.4889418 -28.8430481 31.48545197 -28.86431885 30.45155334 C-28.86733221 20.87343943 -25.83628884 13.84818308 -19.34472656 6.84008789 C-13.75257673 1.8466935 -7.37337674 -0.01722752 0 0 Z " fill="#F8F8F8" transform="translate(580.4111328125,99.886474609375)"/>
<path d="M0 0 C1.56139206 0.0001133 1.56139206 0.0001133 3.15432739 0.00022888 C4.28144135 0.00539017 5.4085553 0.01055145 6.56982422 0.01586914 C7.72118866 0.01728409 8.8725531 0.01869904 10.05880737 0.02015686 C13.74740158 0.02576823 17.43593576 0.03832269 21.12451172 0.05102539 C23.62060459 0.05603892 26.11669842 0.06060208 28.61279297 0.06469727 C34.74174112 0.07489179 40.87055899 0.09446507 46.99951172 0.11352539 C46.99951172 11.33352539 46.99951172 22.55352539 46.99951172 34.11352539 C39.98794853 34.20544683 32.97848294 34.28506167 25.96679688 34.33325195 C23.58261015 34.35334432 21.19847257 34.3806232 18.81445312 34.4152832 C15.38382834 34.46390398 11.95385617 34.48651851 8.52294922 34.50415039 C7.46022797 34.52479553 6.39750671 34.54544067 5.30258179 34.56671143 C-0.80396496 34.56855528 -4.3599302 34.20677199 -9.00048828 30.11352539 C-12.61533834 25.81706166 -12.51802461 21.5465267 -12.50048828 16.17602539 C-12.52884766 15.3903418 -12.55720703 14.6046582 -12.58642578 13.79516602 C-12.60045325 9.60446027 -12.28280104 6.92188892 -9.59423828 3.60961914 C-6.12146194 0.26759492 -4.67890739 -0.01130171 0 0 Z " fill="#060606" transform="translate(476.00048828125,117.886474609375)"/>
<path d="M0 0 C6.6 0 13.2 0 20 0 C20 22.77 20 45.54 20 69 C13.4 69 6.8 69 0 69 C0 46.23 0 23.46 0 0 Z " fill="#F5F6F5" transform="translate(637,101)"/>
<path d="M0 0 C4.75941074 3.97826235 9.27814816 8.11884417 13.66796875 12.5 C14.27006668 13.09876953 14.87216461 13.69753906 15.49250793 14.31445312 C16.75338712 15.57030897 18.01295113 16.82748656 19.27124023 18.0859375 C21.18779993 20.00029958 23.11223679 21.90650112 25.03710938 23.8125 C26.2687185 25.04117636 27.49985471 26.27032699 28.73046875 27.5 C29.30033005 28.06267578 29.87019135 28.62535156 30.45732117 29.20507812 C33.81096576 32.57791224 36.49212914 35.9551207 39 40 C29.91702968 41.73095189 18.50389179 43.82886315 10.12084961 38.89373779 C1.18601165 32.39800113 -6.06866075 23.52251 -13 15 C-11.16307611 10.99625569 -8.50882084 8.28042066 -5.375 5.25 C-4.859375 4.74339844 -4.34375 4.23679688 -3.8125 3.71484375 C-2.54616661 2.47196098 -1.2736856 1.23534724 0 0 Z " fill="#F4F5F4" transform="translate(739,130)"/>
<path d="M0 0 C4.35325518 -0.23344258 8.70489438 -0.3747943 13.0625 -0.5 C14.29162109 -0.56703125 15.52074219 -0.6340625 16.78710938 -0.703125 C25.74669529 -0.89632362 25.74669529 -0.89632362 29.13427734 1.52636719 C30.91022621 3.59771436 32.43143466 5.76881191 34 8 C35.3748174 9.41152089 36.78246261 10.79170224 38.21875 12.140625 C38.92257812 12.81867188 39.62640625 13.49671875 40.3515625 14.1953125 C41.80799962 15.588196 43.27180961 16.97340343 44.7421875 18.3515625 C45.43570313 19.02445313 46.12921875 19.69734375 46.84375 20.390625 C47.47474609 20.98907227 48.10574219 21.58751953 48.75585938 22.20410156 C50 24 50 24 49.78808594 26.10058594 C48.79585742 28.49201651 47.47932895 30.07518169 45.75 32 C45.16734375 32.66 44.5846875 33.32 43.984375 34 C41.79481736 36.20679826 39.45850699 38.10101529 37 40 C34.47483195 37.50434749 31.95570627 35.00267549 29.4375 32.5 C28.73302734 31.80390625 28.02855469 31.1078125 27.30273438 30.390625 C23.26823719 26.37471997 19.44311733 22.25967966 15.73022461 17.94628906 C12.23819814 14.01819043 8.41195414 10.41261828 4.63476562 6.76171875 C4.03470703 6.17261719 3.43464844 5.58351563 2.81640625 4.9765625 C2.27443604 4.45143066 1.73246582 3.92629883 1.17407227 3.38525391 C0 2 0 2 0 0 Z " fill="#F3F4F3" transform="translate(667,84)"/>
<path d="M0 0 C3.88804513 3.18112783 5.56848233 4.58608803 6.125 9.6875 C5.56944454 14.96527683 4.02900478 17.17447325 0 20.5625 C-3.93017837 22.60316954 -5.88081281 23.01652407 -10.25 22.25 C-14.06490608 19.83060628 -16.8058937 17.58231889 -18.25 13.25 C-18.65109454 8.99839783 -18.51378256 6.7493027 -16.5 2.9375 C-11.89412581 -2.56396084 -6.47775263 -3.48802065 0 0 Z " fill="#F0EEEB" transform="translate(802.25,83.75)"/>
<path d="M0 0 C6.6 0 13.2 0 20 0 C20 3.96 20 7.92 20 12 C13.4 12 6.8 12 0 12 C0 8.04 0 4.08 0 0 Z " fill="#E8E8E8" transform="translate(637,84)"/>
<path d="M0 0 C3.66262449 0.81465246 5.13193418 2.40542239 7.16015625 5.48046875 C7.68528624 9.75652722 7.50411979 12.81802572 5.16015625 16.48046875 C1.16015625 11.73046875 1.16015625 11.73046875 1.16015625 9.48046875 C1.82015625 9.48046875 2.48015625 9.48046875 3.16015625 9.48046875 C2.83015625 7.83046875 2.50015625 6.18046875 2.16015625 4.48046875 C-0.80984375 4.15046875 -3.77984375 3.82046875 -6.83984375 3.48046875 C-6.83984375 7.44046875 -6.83984375 11.40046875 -6.83984375 15.48046875 C-6.17984375 15.48046875 -5.51984375 15.48046875 -4.83984375 15.48046875 C-4.83984375 13.83046875 -4.83984375 12.18046875 -4.83984375 10.48046875 C-2.96484375 10.66796875 -2.96484375 10.66796875 -0.83984375 11.48046875 C0.28515625 13.98046875 0.28515625 13.98046875 1.16015625 16.48046875 C1.82015625 16.81046875 2.48015625 17.14046875 3.16015625 17.48046875 C1.59097133 19.04965367 0.01930466 18.76305818 -2.15234375 18.85546875 C-5.8887874 18.83170758 -6.50404271 18.79947974 -9.33984375 16.10546875 C-11.57479877 12.19429747 -12.37844521 10.05858116 -11.83984375 5.48046875 C-8.59214713 0.66130602 -5.56302642 -0.34362601 0 0 Z " fill="#262625" transform="translate(797.83984375,84.51953125)"/>
<path d="M0 0 C3.10039543 1.75494081 5.48825667 3.48825667 8 6 C8.26991906 8.68839385 8.08737357 11.29141936 8 14 C7.731875 13.443125 7.46375 12.88625 7.1875 12.3125 C4.93288201 7.37424914 4.93288201 7.37424914 1 4 C-3.31448031 3.49192413 -6.82998515 3.25803936 -10.5625 5.625 C-12.47387276 8.78292021 -12.57279556 10.34842828 -12 14 C-10.83620714 16.49312522 -9.49006075 18.67178008 -8 21 C-11 21 -11 21 -12.625 19.6875 C-15.52874867 16.12380845 -15.37309674 12.40254158 -15 8 C-13.3718054 4.91806022 -11.96990938 2.73579333 -9.1875 0.625 C-5.93389157 -0.30460241 -3.37197775 -0.34882528 0 0 Z " fill="#C8C8C6" transform="translate(799,82)"/>
<path d="M0 0 C0.33 0 0.66 0 1 0 C1.29402058 4.99834992 1.20219742 8.05062318 -2 12 C-5.40265352 14.86132228 -7.28848602 15.94070717 -11.75 16.3125 C-15 16 -15 16 -17 15 C-17 14.34 -17 13.68 -17 13 C-13.7 12.67 -10.4 12.34 -7 12 C-7.66 10.68 -8.32 9.36 -9 8 C-8.34 7.34 -7.68 6.68 -7 6 C-6.01 7.32 -5.02 8.64 -4 10 C-3.71125 8.72125 -3.4225 7.4425 -3.125 6.125 C-2.45897517 3.17546145 -2.19797403 2.19797403 0 0 Z " fill="#CACAC9" transform="translate(807,90)"/>
<path d="M0 0 C0.99 0.33 1.98 0.66 3 1 C3.28571429 8.42857143 3.28571429 8.42857143 1 12 C-3 7.25 -3 7.25 -3 5 C-2.34 4.67 -1.68 4.34 -1 4 C-0.34786708 1.97536745 -0.34786708 1.97536745 0 0 Z " fill="#131313" transform="translate(802,89)"/>
<path d="M0 0 C0.66 0 1.32 0 2 0 C1.9175 1.175625 1.835 2.35125 1.75 3.5625 C1.71575415 8.36548011 3.37066032 11.05599047 6 15 C3 15 3 15 1.375 13.6875 C-1.53715521 10.11349134 -1.16025352 6.40697172 -1 2 C-0.67 1.34 -0.34 0.68 0 0 Z " fill="#E8E7E6" transform="translate(785,88)"/>
<path d="M0 0 C0.33 0 0.66 0 1 0 C1 3.63 1 7.26 1 11 C0.34 11 -0.32 11 -1 11 C-2.50662097 7.98675805 -2.17770373 5.31713623 -2 2 C-1.34 1.34 -0.68 0.68 0 0 Z " fill="#070706" transform="translate(789,89)"/>
<path d="M0 0 C2.19702465 0.37879735 3.83875922 0.90210381 5.75 2.0625 C7.79404368 5.23076771 7.182379 8.29162692 7 12 C6.731875 11.443125 6.46375 10.88625 6.1875 10.3125 C3.93288201 5.37424914 3.93288201 5.37424914 0 2 C0 1.34 0 0.68 0 0 Z " fill="#E1E1E0" transform="translate(800,84)"/>
<path d="M0 0 C0.33 0 0.66 0 1 0 C1.28571429 7.42857143 1.28571429 7.42857143 -1 11 C-1.66 11 -2.32 11 -3 11 C-2.88590407 9.54077307 -2.75834456 8.08259402 -2.625 6.625 C-2.55539062 5.81289062 -2.48578125 5.00078125 -2.4140625 4.1640625 C-2 2 -2 2 0 0 Z " fill="#B9B8B8" transform="translate(807,90)"/>
<path d="M0 0 C1.65 0 3.3 0 5 0 C5 1.32 5 2.64 5 4 C3.35 4 1.7 4 0 4 C0 2.68 0 1.36 0 0 Z " fill="#353432" transform="translate(793,89)"/>
<path d="M0 0 C0.58201172 0.75216797 0.58201172 0.75216797 1.17578125 1.51953125 C0.51578125 1.51953125 -0.14421875 1.51953125 -0.82421875 1.51953125 C-1.15421875 2.83953125 -1.48421875 4.15953125 -1.82421875 5.51953125 C-2.15421875 4.19953125 -2.48421875 2.87953125 -2.82421875 1.51953125 C-5.79421875 1.18953125 -8.76421875 0.85953125 -11.82421875 0.51953125 C-11.82421875 0.18953125 -11.82421875 -0.14046875 -11.82421875 -0.48046875 C-10.22306299 -0.72980445 -8.61801716 -0.95425523 -7.01171875 -1.16796875 C-6.11839844 -1.29558594 -5.22507812 -1.42320313 -4.3046875 -1.5546875 C-1.82421875 -1.48046875 -1.82421875 -1.48046875 0 0 Z " fill="#53514F" transform="translate(802.82421875,87.48046875)"/>
<path d="M0 0 C0.66 0.33 1.32 0.66 2 1 C-0.64 3.64 -3.28 6.28 -6 9 C-6.66 8.67 -7.32 8.34 -8 8 C-5.33333333 5.33333333 -2.66666667 2.66666667 0 0 Z " fill="#DBDCDC" transform="translate(457,105)"/>
<path d="M0 0 C4 4.625 4 4.625 4 8 C2.35 6.68 0.7 5.36 -1 4 C-0.67 2.68 -0.34 1.36 0 0 Z " fill="#D4D5D4" transform="translate(786,96)"/>
</svg>
